<svg id="Group_90" data-name="Group 90" xmlns="http://www.w3.org/2000/svg" width="60" height="38.571" viewBox="0 0 60 38.571">
  <path id="Path_250" data-name="Path 250" d="M1055.149,501.675l-5.206,4.985a10.851,10.851,0,0,0-2.945-2.008,11.516,11.516,0,0,0-10.584.692,12.366,12.366,0,0,0-4.315,4.466,12.306,12.306,0,0,0,4.315,16.62,11.281,11.281,0,0,0,5.925,1.627,11.49,11.49,0,0,0,6.029-1.523,9.7,9.7,0,0,0,3.425-3.393,8.618,8.618,0,0,0,1.37-3.393H1042.34V513.1h18.016a13.481,13.481,0,0,1,.274,3.254,20.2,20.2,0,0,1-2.295,9.729,16.849,16.849,0,0,1-6.44,6.68,19.51,19.51,0,0,1-19.144-.173,19.3,19.3,0,0,1-9.521-16.724,18.785,18.785,0,0,1,2.6-9.694,19.129,19.129,0,0,1,6.918-6.961,18.471,18.471,0,0,1,9.589-2.6A18.168,18.168,0,0,1,1055.149,501.675Zm22.6,5.955v5.47h5.478v5.538h-5.478v5.47h-5.48v-5.47h-5.411V513.1h5.411v-5.47h5.48Z" transform="translate(-1023.23 -496.617)" fill="#ece9e4"/>
</svg>
