<svg id="Group_84" data-name="Group 84" xmlns="http://www.w3.org/2000/svg" width="60" height="60" viewBox="0 0 60 60">
  <path id="Path_253" data-name="Path 253" d="M814.534,577.385V564.423a1.822,1.822,0,0,1,.138-.926,2.71,2.71,0,0,1,.963-.446l.619-.137v14.468h2.477V562.639h1.582v14.744h2.477V562.572h32.546a11.236,11.236,0,0,1,5.745,1.541,12.168,12.168,0,0,1,4.266,4.148,10.981,10.981,0,0,1,1.686,5.623q.067,1.715.069,4.114-.069,5.076-.069,4.181h-18.44a1.186,1.186,0,0,1-.963-.411,15.866,15.866,0,0,0-6.812-3.7,14.9,14.9,0,0,0-7.569.036,16.14,16.14,0,0,0-6.812,3.737.991.991,0,0,1-.688.343H807.516l-.344-.069v-2.606q-.07.82-.069-3.156a30.344,30.344,0,0,1,.138-3.154,11.1,11.1,0,0,1,4.61-8.3l.275-.069V577.38h2.408Zm35.092,6.65h17.408v26.946a11.239,11.239,0,0,1-1.583,5.829,11.677,11.677,0,0,1-10.115,5.76H818.869a10.888,10.888,0,0,1-5.849-1.51,12.123,12.123,0,0,1-4.3-4.25,11.051,11.051,0,0,1-1.617-5.828V584.1h17.408a15.049,15.049,0,0,0-1.927,13.851A15.633,15.633,0,0,0,834.935,608a15.579,15.579,0,0,0,6.571-.516,15.048,15.048,0,0,0,5.78-3.223,14.562,14.562,0,0,0,3.853-5.486,15.4,15.4,0,0,0,1.17-7.13A16.575,16.575,0,0,0,849.626,584.035ZM837.1,604.606a12.03,12.03,0,0,1-5.986-1.543,11.361,11.361,0,0,1-4.335-4.25,11.776,11.776,0,0,1,0-11.793,11.874,11.874,0,0,1,4.335-4.322,11.583,11.583,0,0,1,5.952-1.61,11.406,11.406,0,0,1,5.917,1.61,11.978,11.978,0,0,1,4.3,4.322,11.675,11.675,0,0,1-4.3,16.042A11.7,11.7,0,0,1,837.1,604.606Zm8.67-11.724a8.563,8.563,0,0,0-1.17-4.354,8.659,8.659,0,0,0-3.165-3.189,8.771,8.771,0,0,0-8.738,0,8.724,8.724,0,0,0-3.165,3.154,8.689,8.689,0,0,0,0,8.708,8.937,8.937,0,0,0,3.165,3.188,8.314,8.314,0,0,0,4.369,1.2,8.5,8.5,0,0,0,4.369-1.167,8.7,8.7,0,0,0,3.165-3.154A8.491,8.491,0,0,0,845.773,592.882ZM861.6,572.654V569.5a1.893,1.893,0,0,0-.516-1.4,1.818,1.818,0,0,0-1.342-.514q-3.166-.067-6.4,0a1.733,1.733,0,0,0-1.376.547,2.1,2.1,0,0,0-.482,1.44v6.31a1.887,1.887,0,0,0,.516,1.4,1.819,1.819,0,0,0,1.342.516h6.33a1.912,1.912,0,0,0,1.411-.516,1.89,1.89,0,0,0,.516-1.4Z" transform="translate(-807.103 -562.572)" fill="#ece9e4"/>
</svg>
