<svg id="school-paper-clip" xmlns="http://www.w3.org/2000/svg" width="20" height="22.271" viewBox="0 0 20 22.271">
  <g id="Group_28" data-name="Group 28" transform="translate(0 0)">
    <path id="Path_46" data-name="Path 46" d="M38.592,6.65a.794.794,0,0,0-1.122-1.122l-8.306,8.306a2.549,2.549,0,0,0,3.6,3.6l8.7-8.7a1.24,1.24,0,0,0,.238-.158c1.162-1.162,4.252-4.252,1.281-7.223A4.126,4.126,0,0,0,39.054.1a7.548,7.548,0,0,0-3.6,2.218l-9.428,9.428a5.8,5.8,0,0,0-1.651,4.384,6.558,6.558,0,0,0,1.862,4.331,6.311,6.311,0,0,0,4.291,1.809h.132a5.856,5.856,0,0,0,4.186-1.7l9.3-9.3a.794.794,0,0,0-1.122-1.122l-9.3,9.3a4.351,4.351,0,0,1-3.169,1.241,4.694,4.694,0,0,1-3.407-7.817l9.428-9.428a6.135,6.135,0,0,1,2.813-1.783,2.546,2.546,0,0,1,2.482.832,2.06,2.06,0,0,1,.687,2.258A5.829,5.829,0,0,1,41.233,6.8a1.651,1.651,0,0,0-.158.119l-9.415,9.415a.962.962,0,0,1-1.36-1.36Z" transform="translate(-24.365 0)" fill="#ece9e4"/>
  </g>
</svg>
