<svg id="Group_86" data-name="Group 86" xmlns="http://www.w3.org/2000/svg" width="60" height="60" viewBox="0 0 60 60">
  <path id="Path_298" data-name="Path 298" d="M1052.921,1066.478a29.8,29.8,0,0,1,25.92,14.811,29.092,29.092,0,0,1,4.08,15.155,30.026,30.026,0,0,1-4.08,15.154,30.023,30.023,0,0,1-51.839,0,29.989,29.989,0,0,1-4.08-15.154,29.109,29.109,0,0,1,4.08-15.155,29.647,29.647,0,0,1,10.766-10.767,30.27,30.27,0,0,1,15.153-4.113Zm14.606,17.2q0-.82-.615-.96a2.357,2.357,0,0,0-1.236.069l-.615.206-30.446,11.932a2.724,2.724,0,0,0-.722.515.786.786,0,0,0-.24.72,1.377,1.377,0,0,0,.686.96l.615.343,7.543,2.536,18.17-11.521.48-.2q.548-.205.548.2l-.411.617-14.261,12.892v.137l4.663,3.7,7.678,5.827a2.1,2.1,0,0,0,1.646.137,1.873,1.873,0,0,0,.893-.615,4.247,4.247,0,0,1,.274-.48Z" transform="translate(-1022.921 -1066.41)" fill="#ece9e4"/>
</svg>
