<svg xmlns="http://www.w3.org/2000/svg" width="60" height="60" viewBox="0 0 60 60">
  <g id="Group_88" data-name="Group 88" transform="translate(4 2)">
    <path id="Path_306" data-name="Path 306" d="M1227.269,1149.565v39.168l-.137.684a10.238,10.238,0,0,1-2.816,5.25,10.561,10.561,0,0,1-5.286,2.778l-.616.137h-42.289l-.616-.137a10.575,10.575,0,0,1-5.286-2.778,10.222,10.222,0,0,1-2.816-5.25l-.137-.684v-39.168c.045-2.013.093-3.179.137-3.5a10.707,10.707,0,0,1,5.217-7.271,11.4,11.4,0,0,1,3.638-1.1q.548-.065,20.938-.1t20.938.035a9.854,9.854,0,0,1,4.737,1.783,10.445,10.445,0,0,1,3.3,3.773,9.772,9.772,0,0,1,.963,2.883C1227.184,1146.393,1227.218,1147.559,1227.269,1149.565Zm-12.357,29.565a18.32,18.32,0,0,0-1.89-1.646q-1.614-1.3-2.574-1.989a27.244,27.244,0,0,0-3.259-2.056,3.314,3.314,0,0,0-2.711-.206,2.07,2.07,0,0,0-.894.446,11.442,11.442,0,0,0-1.1,1.269l-1.1,1.372c-.092.044-.275.137-.549.274a2.618,2.618,0,0,1-1.545.1,8.067,8.067,0,0,1-2.3-.926,17.657,17.657,0,0,1-4.222-2.95,17.935,17.935,0,0,1-3.259-3.841,11.432,11.432,0,0,1-1.133-2.4,6.889,6.889,0,0,1-.448-2.126,2.223,2.223,0,0,1,.412-1.372,6.209,6.209,0,0,1,1.27-1.168,11.551,11.551,0,0,0,1.51-1.336,2.45,2.45,0,0,0,.515-.995,3.758,3.758,0,0,0-.616-2.814,26.441,26.441,0,0,0-2.816-4.183,17.711,17.711,0,0,0-2.883-3.155,3.494,3.494,0,0,0-.824-.412,3.04,3.04,0,0,0-1.611-.1,11.052,11.052,0,0,0-2.986,1.751c-.5.412-1.04.892-1.611,1.44a5.59,5.59,0,0,0-1.064,1.235,3.64,3.64,0,0,0-.517,1.957,9.9,9.9,0,0,0,.723,2.847,47.893,47.893,0,0,0,6.8,12.414,51.608,51.608,0,0,0,21.9,16.875,10.766,10.766,0,0,0,1.339.447,4.557,4.557,0,0,0,1.2.069,3.949,3.949,0,0,0,1.443-.343,9.1,9.1,0,0,0,1.611-.994,11.531,11.531,0,0,0,2.06-2.126,10.035,10.035,0,0,0,1.476-2.331A2.825,2.825,0,0,0,1214.913,1179.13Zm-19.393-29.737a1.112,1.112,0,0,0,.378.857.833.833,0,0,0,.515.24c.206.026.608.059,1.2.1a19.1,19.1,0,0,1,4.838.96,15.2,15.2,0,0,1,4.155,2.264,14.9,14.9,0,0,1,5.971,9.878,24.024,24.024,0,0,1,.343,3.361,4.3,4.3,0,0,0,.206,1.305,1.089,1.089,0,0,0,.927.615,1,1,0,0,0,1-.411,1.182,1.182,0,0,0,.24-.583c.022-.206.034-.583.034-1.132a21.38,21.38,0,0,0-2.126-8.779,12.283,12.283,0,0,0-1.373-2.368,24.58,24.58,0,0,0-1.922-2.194,16.55,16.55,0,0,0-2.233-1.957,16.845,16.845,0,0,0-2.506-1.44,19.225,19.225,0,0,0-5.971-1.784q-.824-.067-1.785-.137a9.532,9.532,0,0,0-1.03.036.814.814,0,0,0-.48.24A1.047,1.047,0,0,0,1195.519,1149.394Zm11.567,11.078a9.824,9.824,0,0,1,1.169,4.8,3.411,3.411,0,0,0,.137,1.168,1.056,1.056,0,0,0,.547.547.97.97,0,0,0,.549.137,1.168,1.168,0,0,0,.48-.068,1.252,1.252,0,0,0,.616-.684,3.537,3.537,0,0,0,.069-.962,13.514,13.514,0,0,0-.069-1.44,11.955,11.955,0,0,0-2.059-5.625,12.435,12.435,0,0,0-8.854-5.349,4.969,4.969,0,0,0-1.648-.1,1.129,1.129,0,0,0-.722.446,1.282,1.282,0,0,0-.24.754,1.1,1.1,0,0,0,.309.753,1.788,1.788,0,0,0,1.2.412,16.028,16.028,0,0,1,2.643.515,8.525,8.525,0,0,1,2.3.995A9.882,9.882,0,0,1,1207.087,1160.472Zm-1.03,4.115a4.163,4.163,0,0,0-.069-1.236,6.329,6.329,0,0,0-1.922-3.977,5.6,5.6,0,0,0-3.021-1.509,4.125,4.125,0,0,0-1.064-.173,1.989,1.989,0,0,0-.927.1,1.256,1.256,0,0,0-.618.821.953.953,0,0,0,.275.962.608.608,0,0,0,.412.341,6.739,6.739,0,0,0,.822.137,5.452,5.452,0,0,1,2.059.686,3.188,3.188,0,0,1,1.169,1.338,6.5,6.5,0,0,1,.547,2.092,4.532,4.532,0,0,0,.137.755.918.918,0,0,0,.343.41,1.167,1.167,0,0,0,.721.206,1.068,1.068,0,0,0,1.135-.957Z" transform="translate(-1171.269 -1139.583)" fill="#ece9e4"/>
  </g>
</svg>
